<svg width="200" height="200" viewBox="0 0 200 200" xmlns="http://www.w3.org/2000/svg">
  <defs>
    <!-- Gradient for the main circle -->
    <radialGradient id="mainGradient" cx="0.3" cy="0.3" r="0.8">
      <stop offset="0%" style="stop-color:#4FC3F7;stop-opacity:1" />
      <stop offset="50%" style="stop-color:#29B6F6;stop-opacity:1" />
      <stop offset="100%" style="stop-color:#0277BD;stop-opacity:1" />
    </radialGradient>
    
    <!-- Gradient for the brain -->
    <linearGradient id="brainGradient" x1="0%" y1="0%" x2="100%" y2="100%">
      <stop offset="0%" style="stop-color:#E1F5FE;stop-opacity:1" />
      <stop offset="100%" style="stop-color:#B3E5FC;stop-opacity:1" />
    </linearGradient>
    
    <!-- Gradient for neural connections -->
    <linearGradient id="neuralGradient" x1="0%" y1="0%" x2="100%" y2="100%">
      <stop offset="0%" style="stop-color:#81C784;stop-opacity:0.8" />
      <stop offset="100%" style="stop-color:#4CAF50;stop-opacity:0.8" />
    </linearGradient>
    
    <!-- Glow effect -->
    <filter id="glow">
      <feGaussianBlur stdDeviation="3" result="coloredBlur"/>
      <feMerge> 
        <feMergeNode in="coloredBlur"/>
        <feMergeNode in="SourceGraphic"/>
      </feMerge>
    </filter>
    
    <!-- Drop shadow -->
    <filter id="dropshadow" x="-50%" y="-50%" width="200%" height="200%">
      <feDropShadow dx="2" dy="4" stdDeviation="3" flood-color="#000000" flood-opacity="0.3"/>
    </filter>
  </defs>
  
  <!-- Background circle with gradient -->
  <circle cx="100" cy="100" r="95" fill="url(#mainGradient)" filter="url(#dropshadow)"/>
  
  <!-- Inner circle for depth -->
  <circle cx="100" cy="100" r="85" fill="none" stroke="rgba(255,255,255,0.2)" stroke-width="1"/>
  
  <!-- Brain outline (simplified medical symbol) -->
  <g transform="translate(100,100)">
    <!-- Left brain hemisphere -->
    <path d="M-25,-30 C-35,-30 -40,-20 -40,-10 C-40,0 -40,10 -35,20 C-30,25 -20,30 -10,25 C-5,20 -5,10 -10,0 C-15,-10 -20,-20 -25,-30 Z" 
          fill="url(#brainGradient)" 
          stroke="rgba(255,255,255,0.8)" 
          stroke-width="2" 
          filter="url(#glow)"/>
    
    <!-- Right brain hemisphere -->
    <path d="M25,-30 C35,-30 40,-20 40,-10 C40,0 40,10 35,20 C30,25 20,30 10,25 C5,20 5,10 10,0 C15,-10 20,-20 25,-30 Z" 
          fill="url(#brainGradient)" 
          stroke="rgba(255,255,255,0.8)" 
          stroke-width="2" 
          filter="url(#glow)"/>
    
    <!-- Central connection -->
    <ellipse cx="0" cy="0" rx="8" ry="25" fill="url(#brainGradient)" stroke="rgba(255,255,255,0.8)" stroke-width="1"/>
  </g>
  
  <!-- Neural network connections -->
  <g stroke="url(#neuralGradient)" stroke-width="2" fill="none" opacity="0.7">
    <!-- Connection lines -->
    <path d="M60,80 Q80,60 100,80 Q120,60 140,80" stroke-linecap="round"/>
    <path d="M70,120 Q90,140 110,120 Q130,140 150,120" stroke-linecap="round"/>
    <path d="M80,100 Q100,90 120,100" stroke-linecap="round"/>
    <path d="M50,100 Q70,110 90,100" stroke-linecap="round"/>
    <path d="M110,100 Q130,90 150,100" stroke-linecap="round"/>
  </g>
  
  <!-- Neural nodes -->
  <g fill="#4CAF50" opacity="0.8">
    <circle cx="60" cy="80" r="3" filter="url(#glow)"/>
    <circle cx="100" cy="80" r="3" filter="url(#glow)"/>
    <circle cx="140" cy="80" r="3" filter="url(#glow)"/>
    <circle cx="70" cy="120" r="3" filter="url(#glow)"/>
    <circle cx="110" cy="120" r="3" filter="url(#glow)"/>
    <circle cx="150" cy="120" r="3" filter="url(#glow)"/>
    <circle cx="50" cy="100" r="3" filter="url(#glow)"/>
    <circle cx="80" cy="100" r="3" filter="url(#glow)"/>
    <circle cx="120" cy="100" r="3" filter="url(#glow)"/>
    <circle cx="150" cy="100" r="3" filter="url(#glow)"/>
  </g>
  
  <!-- Medical cross symbol (subtle) -->
  <g transform="translate(100,140)" opacity="0.6">
    <rect x="-8" y="-2" width="16" height="4" fill="rgba(255,255,255,0.8)" rx="2"/>
    <rect x="-2" y="-8" width="4" height="16" fill="rgba(255,255,255,0.8)" rx="2"/>
  </g>
  
  <!-- AI circuit pattern -->
  <g stroke="rgba(255,255,255,0.3)" stroke-width="1" fill="none" opacity="0.5">
    <rect x="20" y="20" width="15" height="15" rx="2"/>
    <rect x="165" y="20" width="15" height="15" rx="2"/>
    <rect x="20" y="165" width="15" height="15" rx="2"/>
    <rect x="165" y="165" width="15" height="15" rx="2"/>
    
    <!-- Circuit lines -->
    <path d="M35,27 L50,27"/>
    <path d="M27,35 L27,50"/>
    <path d="M165,27 L150,27"/>
    <path d="M173,35 L173,50"/>
    <path d="M35,173 L50,173"/>
    <path d="M27,165 L27,150"/>
    <path d="M165,173 L150,173"/>
    <path d="M173,165 L173,150"/>
  </g>
  
  <!-- Outer ring with subtle animation effect -->
  <circle cx="100" cy="100" r="90" fill="none" stroke="rgba(255,255,255,0.1)" stroke-width="2" stroke-dasharray="5,5">
    <animateTransform attributeName="transform" attributeType="XML" type="rotate" from="0 100 100" to="360 100 100" dur="20s" repeatCount="indefinite"/>
  </circle>
</svg>
